<svg xmlns="http://www.w3.org/2000/svg" viewBox="0 0 64 64" fill="none">
  <defs>
    <linearGradient id="bg" x1="10" y1="8" x2="56" y2="58" gradientUnits="userSpaceOnUse">
      <stop stop-color="#F7E6D2" />
      <stop offset="1" stop-color="#E7C8A0" />
    </linearGradient>
    <linearGradient id="bag" x1="20" y1="18" x2="44" y2="50" gradientUnits="userSpaceOnUse">
      <stop stop-color="#2A211B" />
      <stop offset="1" stop-color="#14100D" />
    </linearGradient>
  </defs>
  <rect x="4" y="4" width="56" height="56" rx="18" fill="url(#bg)" />
  <path
    d="M23 24.5C23 19.806 26.806 16 31.5 16H32.5C37.194 16 41 19.806 41 24.5V26H43C45.209 26 47 27.791 47 30V44C47 47.314 44.314 50 41 50H23C19.686 50 17 47.314 17 44V30C17 27.791 18.791 26 21 26H23V24.5Z"
    fill="url(#bag)"
  />
  <path
    d="M26 26V24.5C26 21.463 28.463 19 31.5 19H32.5C35.537 19 38 21.463 38 24.5V26"
    stroke="#F5D5CB"
    stroke-width="3"
    stroke-linecap="round"
  />
  <path
    d="M26 34C26 37.314 28.686 40 32 40C35.314 40 38 37.314 38 34"
    stroke="#C24A2E"
    stroke-width="3"
    stroke-linecap="round"
  />
  <circle cx="26" cy="31" r="1.75" fill="#F7E6D2" />
  <circle cx="38" cy="31" r="1.75" fill="#F7E6D2" />
</svg>
